<svg width="640" height="320" viewBox="0 0 640 320" fill="none" xmlns="http://www.w3.org/2000/svg">
  <defs>
    <linearGradient id="bg" x1="0" y1="0" x2="640" y2="320" gradientUnits="userSpaceOnUse">
      <stop stop-color="#ECFEFF"/>
      <stop offset="1" stop-color="#EFF6FF"/>
    </linearGradient>
    <linearGradient id="card" x1="90" y1="72" x2="314" y2="246" gradientUnits="userSpaceOnUse">
      <stop stop-color="#10B981"/>
      <stop offset="1" stop-color="#14B8A6"/>
    </linearGradient>
  </defs>
  <rect width="640" height="320" rx="24" fill="url(#bg)"/>
  <rect x="70" y="64" width="260" height="180" rx="18" fill="url(#card)"/>
  <rect x="100" y="100" width="200" height="14" rx="7" fill="white" fill-opacity="0.8"/>
  <rect x="100" y="128" width="146" height="14" rx="7" fill="white" fill-opacity="0.75"/>
  <rect x="100" y="169" width="84" height="42" rx="10" fill="white"/>
  <path d="M144 190L157 177" stroke="#10B981" stroke-width="7" stroke-linecap="round"/>
  <path d="M157 190L144 177" stroke="#10B981" stroke-width="7" stroke-linecap="round"/>
  <circle cx="462" cy="120" r="56" fill="#DBEAFE"/>
  <circle cx="462" cy="120" r="38" fill="#93C5FD"/>
  <path d="M450 120L460 130L476 112" stroke="#1D4ED8" stroke-width="8" stroke-linecap="round" stroke-linejoin="round"/>
  <rect x="392" y="194" width="140" height="20" rx="10" fill="#BFDBFE"/>
  <rect x="420" y="224" width="84" height="20" rx="10" fill="#C7D2FE"/>
</svg>
